<svg width="16" height="17" viewBox="0 0 16 17" fill="none" xmlns="http://www.w3.org/2000/svg">
<path d="M8.00065 1.83337C4.31732 1.83337 1.33399 4.81671 1.33399 8.50004C1.33318 9.89948 1.77305 11.2636 2.59119 12.399C3.40933 13.5344 4.56421 14.3833 5.89199 14.8254C6.22532 14.8834 6.35065 14.6834 6.35065 14.508C6.35065 14.35 6.34199 13.8254 6.34199 13.2667C4.66732 13.5754 4.23399 12.8587 4.10065 12.4834C4.02532 12.2914 3.70065 11.7 3.41732 11.5414C3.18399 11.4167 2.85065 11.108 3.40865 11.1C3.93399 11.0914 4.30865 11.5834 4.43399 11.7834C5.03399 12.7914 5.99199 12.508 6.37532 12.3334C6.43399 11.9 6.60865 11.6087 6.80065 11.442C5.31732 11.2754 3.76732 10.7 3.76732 8.15004C3.76732 7.42471 4.02532 6.82537 4.45065 6.35871C4.38399 6.19204 4.15065 5.50871 4.51732 4.59204C4.51732 4.59204 5.07532 4.41671 6.35065 5.27471C6.89339 5.12431 7.45413 5.04872 8.01732 5.05004C8.58399 5.05004 9.15065 5.12471 9.68399 5.27471C10.9593 4.40804 11.5173 4.59204 11.5173 4.59204C11.884 5.50871 11.6507 6.19204 11.584 6.35871C12.0087 6.82537 12.2673 7.41671 12.2673 8.15004C12.2673 10.7087 10.7093 11.2754 9.22599 11.442C9.46732 11.65 9.67599 12.05 9.67599 12.6754C9.67599 13.5667 9.66732 14.2834 9.66732 14.5087C9.66732 14.6834 9.79265 14.8914 10.126 14.8247C11.4492 14.3778 12.599 13.5272 13.4135 12.3927C14.2281 11.2581 14.6663 9.8967 14.6667 8.50004C14.6667 4.81671 11.6833 1.83337 7.99999 1.83337" fill="#EA1D2C"/>
</svg>
