<svg width="16" height="17" viewBox="0 0 16 17" fill="none" xmlns="http://www.w3.org/2000/svg">
<path d="M2.04332 5.50671C2.59799 4.4022 3.4489 3.47372 4.50094 2.82502C5.55298 2.17633 6.76469 1.83298 8.00065 1.83337C9.79732 1.83337 11.3067 2.49404 12.4607 3.57004L10.5493 5.48204C9.85798 4.82137 8.97932 4.48471 8.00065 4.48471C6.26398 4.48471 4.79398 5.65804 4.27065 7.23338C4.13732 7.63338 4.06132 8.06004 4.06132 8.50004C4.06132 8.94004 4.13732 9.36671 4.27065 9.76671C4.79465 11.3427 6.26398 12.5154 8.00065 12.5154C8.89732 12.5154 9.66065 12.2787 10.258 11.8787C10.6043 11.6507 10.9007 11.3549 11.1295 11.009C11.3582 10.6632 11.5144 10.2746 11.5887 9.86671H8.00065V7.28804H14.2793C14.358 7.72404 14.4007 8.17871 14.4007 8.65137C14.4007 10.682 13.674 12.3914 12.4127 13.5514C11.31 14.57 9.80065 15.1667 8.00065 15.1667C7.12507 15.1671 6.25801 14.9949 5.44901 14.66C4.64002 14.325 3.90495 13.834 3.28582 13.2149C2.6667 12.5957 2.17565 11.8607 1.84074 11.0517C1.50583 10.2427 1.33363 9.37562 1.33398 8.50004C1.33398 7.42404 1.59132 6.40671 2.04332 5.50671Z" fill="#EA1D2C"/>
</svg>
